<mxfile host="65bd71144e">
    <diagram id="rUnBcGdYviLbZ6ZqeBeY" name="Page-1">
        <mxGraphModel dx="808" dy="568" grid="1" gridSize="10" guides="1" tooltips="1" connect="1" arrows="1" fold="1" page="1" pageScale="1" pageWidth="850" pageHeight="1100" math="0" shadow="0">
            <root>
                <mxCell id="0"/>
                <mxCell id="1" parent="0"/>
                <mxCell id="2" value="Units" style="ellipse;shape=cloud;whiteSpace=wrap;html=1;" vertex="1" parent="1">
                    <mxGeometry x="350" y="210" width="120" height="80" as="geometry"/>
                </mxCell>
                <mxCell id="3" value="Identifier" style="ellipse;shape=cloud;whiteSpace=wrap;html=1;" vertex="1" parent="1">
                    <mxGeometry x="450" y="120" width="120" height="80" as="geometry"/>
                </mxCell>
                <mxCell id="4" value="Name" style="ellipse;shape=cloud;whiteSpace=wrap;html=1;" vertex="1" parent="1">
                    <mxGeometry x="540" y="210" width="120" height="80" as="geometry"/>
                </mxCell>
                <mxCell id="5" value="Floor" style="ellipse;shape=cloud;whiteSpace=wrap;html=1;" vertex="1" parent="1">
                    <mxGeometry x="530" y="310" width="120" height="80" as="geometry"/>
                </mxCell>
                <mxCell id="6" value="Doctor" style="ellipse;shape=cloud;whiteSpace=wrap;html=1;" vertex="1" parent="1">
                    <mxGeometry x="365" y="310" width="120" height="80" as="geometry"/>
                </mxCell>
                <mxCell id="7" value="Patience" style="ellipse;shape=cloud;whiteSpace=wrap;html=1;" vertex="1" parent="1">
                    <mxGeometry x="230" y="300" width="120" height="80" as="geometry"/>
                </mxCell>
            </root>
        </mxGraphModel>
    </diagram>
</mxfile>